<svg width="165" height="64" viewBox="0 0 165 64" fill="none" xmlns="http://www.w3.org/2000/svg">
<g clip-path="url(#clip0_8113_8091)">
<path d="M112.991 41.2278L112.579 3.04928C112.57 2.23528 113.306 1.61515 114.106 1.76055L128.321 4.3405C129.122 4.4859 129.592 5.32476 129.297 6.08408L115.494 41.6827C114.978 43.0136 113.005 42.6545 112.99 41.2278H112.991Z" fill="white"/>
<path d="M120.957 44.8729L145.182 15.3613C145.699 14.7324 146.661 14.7287 147.18 15.355L156.411 26.469C156.932 27.0953 156.752 28.041 156.039 28.4325L122.583 46.8302C121.332 47.5174 120.051 45.9752 120.956 44.8716L120.957 44.8729Z" fill="white"/>
<path d="M124.718 52.7854L162.245 45.7502C163.045 45.5998 163.784 46.2162 163.78 47.0302L163.708 61.4772C163.704 62.2912 162.958 62.9001 162.161 62.7423L124.705 55.3305C123.306 55.0534 123.316 53.0476 124.718 52.7854Z" fill="white"/>
<path d="M21.722 3.61719C11.5326 3.61719 1.24268 10.8227 1.24268 22.2162C1.24268 33.6097 11.5326 40.8152 21.722 40.8152C31.9113 40.8152 42.2012 33.6085 42.2012 22.2162C42.2012 10.8239 31.9125 3.61719 21.722 3.61719ZM20.6495 25.7792C18.6984 25.7792 16.7273 24.3985 16.7273 22.2174C16.7273 20.0364 18.6984 18.6557 20.6495 18.6557C22.6006 18.6557 24.5716 20.0364 24.5716 22.2174C24.5716 24.3985 22.6006 25.7792 20.6495 25.7792Z" fill="white" stroke="#7C25EB" stroke-width="2.4855" stroke-miterlimit="10"/>
<path d="M39.2858 37.983L36.7158 3.50037H50.0058L51.9457 37.983H39.2858Z" fill="white" stroke="#7C25EB" stroke-width="2.4855" stroke-miterlimit="10"/>
<path d="M100.064 12.7725L94.9672 12.5476L95.4718 2.40178L82.3508 2.3819L79.9561 36.1462L93.7829 36.3947L94.3533 24.9005L99.3256 25.0882L100.064 12.7725Z" fill="white" stroke="#7C25EB" stroke-width="2.4855" stroke-miterlimit="10"/>
<path d="M33.9767 56.2204L34.1221 54.8447L55.6279 54.2084L54.6312 34.2237L17.7998 36.0928L18.6585 43.8065H39.8586V44.9536L18.8474 45.4967L20.765 62.7187H55.9684L55.7248 55.1007L33.9767 56.2204Z" fill="white" stroke="#7C25EB" stroke-width="2.4855" stroke-miterlimit="10"/>
<path d="M65.0941 23.9187L66.5419 34.287L83.36 30.7464L76.587 1.78412L56.6657 3.13747L46.3608 34.0136L61.4702 35.2315L65.0941 23.9187Z" fill="white" stroke="#7C25EB" stroke-width="2.4855" stroke-miterlimit="10"/>
<path d="M74.4367 30.2717C64.0796 30.2717 53.6206 36.5576 53.6206 46.4946C53.6206 56.4316 64.0796 62.7175 74.4367 62.7175C84.7938 62.7175 95.2528 56.4316 95.2528 46.4946C95.2528 34.7233 84.7938 30.2717 74.4367 30.2717ZM74.4367 49.6027C72.534 49.6027 70.6127 48.4482 70.6127 46.6226C70.6127 44.797 72.534 43.6425 74.4367 43.6425C76.3393 43.6425 78.2606 44.797 78.2606 46.6226C78.2606 48.4482 76.3393 49.6027 74.4367 49.6027Z" fill="white" stroke="#7C25EB" stroke-width="2.4855" stroke-miterlimit="10"/>
</g>
<defs>
<clipPath id="clip0_8113_8091">
<rect width="165" height="63.5157" fill="white" transform="translate(0 0.473022)"/>
</clipPath>
</defs>
</svg>
