<svg width="168" height="42" viewBox="0 0 168 42" fill="none" xmlns="http://www.w3.org/2000/svg">
<path d="M18.3424 39.0807C28.4726 39.0807 36.6847 30.8685 36.6847 20.7383C36.6847 10.6081 28.4726 2.39594 18.3424 2.39594C8.21216 2.39594 0 10.6081 0 20.7383C0 30.8685 8.21216 39.0807 18.3424 39.0807Z" fill="#7C25EB"/>
<path d="M59.6127 2.39594L80.821 39.0807H38.4043L59.6127 2.39594Z" fill="#5DFA7F"/>
<path d="M155.206 32.8098C155.361 32.5003 155.413 32.1908 155.413 31.8297C155.413 30.3336 153.71 29.663 150.873 29.663C146.591 29.663 143.083 30.9011 142.103 33.4289C141.948 33.8932 141.897 34.2027 141.897 34.3575C141.897 36.0599 144.115 36.8337 147.416 36.6789C151.389 36.421 154.381 35.2345 155.206 32.8098ZM125.75 16.5081C125.801 12.8453 128.535 10.5755 133.333 10.5755C134.158 10.5755 135.448 10.7302 137.254 11.0397C137.821 8.51194 138.131 5.72619 138.079 2.63092L146.488 1.8571L146.23 3.5595C145.456 8.56353 145.095 10.885 144.27 13.0001C146.849 13.8771 149.325 14.7541 151.75 15.6827L147.313 21.8216L140.194 18.4684C138.853 19.397 137.15 20.274 135.139 21.0994C133.849 21.6669 132.611 21.9248 131.476 21.9248C128.019 21.9248 125.75 19.397 125.75 16.5081ZM130.547 16.3017C130.547 16.9724 131.011 17.4366 131.837 17.4366C132.404 17.4366 133.127 17.1787 134.107 16.6628C134.416 16.5081 134.726 16.2501 135.035 15.9406L134.21 15.4763C133.642 15.1152 133.023 14.9604 132.404 14.9604C131.321 14.9604 130.547 15.5279 130.547 16.3017ZM133.436 33.5321C133.436 27.909 139.523 25.1232 148.603 24.7621C157.734 24.5558 163.873 27.032 163.873 32.7583C163.873 38.6909 157.115 41.4766 147.416 41.4766C139.008 41.4766 133.436 38.9488 133.436 33.5321ZM155.464 22.5954V1.13487L163.873 -6.10352e-05V9.18258L168 8.71829V13.2064L163.873 13.6191V21.6153L155.464 22.5954Z" fill="#575B6C"/>
<path d="M122.16 20.6867V31.417L101.473 32.5519V33.8932L122.16 33.2741V40.3933H100.596C97.7591 40.3933 95.4892 38.1234 95.4892 35.2861V29.7146L114.474 28.2701V26.6709L95.4892 28.2701V23.8335L122.16 20.6867ZM87.6995 11.8136C87.6995 4.8492 92.5487 1.59916 99.5131 1.59916C105.549 1.59916 109.47 4.53967 109.47 10.9366C109.47 17.9009 104.62 21.0994 97.6559 21.0994C91.6201 21.0994 87.6995 18.2105 87.6995 11.8136ZM94.9734 11.8136C94.9218 12.4326 94.8702 12.8453 94.8702 13.1033C94.8702 15.4247 95.9019 16.4565 97.5528 16.4565C99.8226 16.4565 101.577 14.6509 102.196 10.9366C102.247 10.3175 102.299 9.90481 102.299 9.64687C102.299 7.32542 101.267 6.29366 99.6163 6.29366C97.3464 6.29366 95.5924 8.09924 94.9734 11.8136ZM113.751 20.5319V1.13487L122.16 -6.10352e-05V19.5518L113.751 20.5319Z" fill="#575B6C"/>
</svg>
