<svg width="19" height="20" viewBox="0 0 19 20" fill="none" xmlns="http://www.w3.org/2000/svg">
<g id="Setting">
<g id="Group">
<path id="Vector" d="M17.6651 6.38755L16.569 4.48815C16.1873 3.82691 15.3397 3.59614 14.674 3.98224L13.995 4.37277C13.072 4.90531 11.9137 4.23963 11.9137 3.17011V2.38905C11.9137 1.6213 11.2924 1 10.5246 1H8.3279C7.56015 1 6.93885 1.6213 6.93885 2.38905V3.17011C6.93885 4.23963 5.78501 4.90531 4.8575 4.37277L4.17851 3.98224C3.51727 3.60058 2.6652 3.82691 2.28355 4.48815L1.1874 6.38755C0.805747 7.04879 1.03208 7.90086 1.69332 8.28251L2.37231 8.67304C3.29538 9.20559 3.29538 10.5414 2.37231 11.0739L1.69332 11.4645C1.03208 11.8461 0.80131 12.6937 1.1874 13.3594L2.28355 15.2588C2.6652 15.9201 3.51283 16.1508 4.17851 15.7647L4.8575 15.3742C5.78057 14.8417 6.93885 15.5073 6.93885 16.5769V17.3579C6.93885 18.1257 7.56015 18.747 8.3279 18.747H10.5246C11.2924 18.747 11.9137 18.1257 11.9137 17.3579V16.5769C11.9137 15.5073 13.0675 14.8417 13.995 15.3742L14.674 15.7647C15.3353 16.1464 16.1873 15.9201 16.569 15.2588L17.6651 13.3594C18.0468 12.6982 17.8205 11.8461 17.1592 11.4645L16.4802 11.0739C15.5572 10.5414 15.5572 9.20559 16.4802 8.67304L17.1592 8.28251C17.8205 7.90086 18.0512 7.05323 17.6651 6.38755Z" stroke="#575B6C" stroke-linejoin="round"/>
<path id="Vector_2" d="M9.43287 12.7026C10.9941 12.7026 12.2598 11.437 12.2598 9.87574C12.2598 8.31448 10.9941 7.04883 9.43287 7.04883C7.87161 7.04883 6.60596 8.31448 6.60596 9.87574C6.60596 11.437 7.87161 12.7026 9.43287 12.7026Z" stroke="#575B6C" stroke-linejoin="round"/>
</g>
</g>
</svg>
