<svg width="12" height="14" viewBox="0 0 12 14" fill="none" xmlns="http://www.w3.org/2000/svg">
<path d="M11.7311 6.65739C11.3725 6.26104 10.7951 6.26104 10.4426 6.65739L6.91162 10.5605V1.00768C6.91162 0.450096 6.50443 0 6 0C5.49556 0 5.08837 0.450096 5.08837 1.00768V10.5605L1.55735 6.65739C1.19878 6.26104 0.621423 6.26104 0.268929 6.65739C-0.0896429 7.05374 -0.0896429 7.69194 0.268929 8.08157L5.35578 13.7044C5.44087 13.7985 5.54419 13.8724 5.65358 13.9261C5.65358 13.9261 5.65358 13.9261 5.65966 13.9261C5.76905 13.9731 5.88452 14 6 14C6.11547 14 6.22486 13.9731 6.33426 13.9261C6.33426 13.9261 6.34034 13.9261 6.34642 13.9261C6.44973 13.8791 6.53482 13.8119 6.61383 13.7313C6.6199 13.7246 6.63206 13.7178 6.64422 13.7111L11.7311 8.08829C12.0896 7.69194 12.0896 7.05374 11.7311 6.66411V6.65739Z" fill="#929292"/>
</svg>
