<svg width="24" height="24" viewBox="0 0 24 24" fill="none" xmlns="http://www.w3.org/2000/svg">
<path d="M11.5158 5.52344C11.5158 8.75957 9.55221 11.3968 7.07617 11.5811C9.55221 11.7654 11.5158 14.4084 11.5158 17.6388C11.5158 14.4026 13.4793 11.7654 15.9554 11.5811C13.4793 11.3968 11.5158 8.75381 11.5158 5.52344Z" fill="white" stroke="white" stroke-width="1.15165" stroke-linejoin="round"/>
<path d="M11.5165 23.0994C17.8769 23.0994 23.033 17.9433 23.033 11.5829C23.033 5.22251 17.8769 0.0664062 11.5165 0.0664062C5.1561 0.0664062 0 5.22251 0 11.5829C0 17.9433 5.1561 23.0994 11.5165 23.0994Z" fill="#E6E6E6"/>
<path d="M11.5158 5.52344C11.5158 8.75957 9.55221 11.3968 7.07617 11.5811C9.55221 11.7654 11.5158 14.4084 11.5158 17.6388C11.5158 14.4026 13.4793 11.7654 15.9554 11.5811C13.4793 11.3968 11.5158 8.75381 11.5158 5.52344Z" fill="white" stroke="white" stroke-width="1.15165" stroke-linejoin="round"/>
</svg>
