<svg width="37" height="8" viewBox="0 0 37 8" fill="none" xmlns="http://www.w3.org/2000/svg">
<path d="M4.60353 0.154785C2.48859 0.154785 0.758179 1.88519 0.758179 4.00014C0.758179 6.11508 2.48859 7.84549 4.60353 7.84549C6.71847 7.84549 8.44888 6.11508 8.44888 4.00014C8.44888 1.88519 6.71847 0.154785 4.60353 0.154785Z" fill="#426BFF"/>
<path d="M18.5802 7.84549C20.7039 7.84549 22.4255 6.12387 22.4255 4.00014C22.4255 1.87641 20.7039 0.154785 18.5802 0.154785C16.4565 0.154785 14.7348 1.87641 14.7348 4.00014C14.7348 6.12387 16.4565 7.84549 18.5802 7.84549Z" fill="#426BFF"/>
<path d="M32.5561 0.154785C30.4412 0.154785 28.7108 1.88519 28.7108 4.00014C28.7108 6.11508 30.4412 7.84549 32.5561 7.84549C34.6711 7.84549 36.4015 6.11508 36.4015 4.00014C36.4015 1.88519 34.6711 0.154785 32.5561 0.154785Z" fill="#426BFF"/>
</svg>
